# xmcd CD database file
#
# Track frame offsets:
#	150
#	11138
#	21505
#	38965
#	52770
#	65174
#	74759
#	86893
#	98802
#	109400
#	121821
#	131186
#
# Disc length: 1925 seconds
#
# Revision: 1
# Processed by: cddbd v1.5.2PL0 Copyright (c) Steve Scherf et al.
# Submitted via: CDex 1.70beta2
#
DISCID=b507830c
DTITLE=TDC-1 - Truck Drivin' Classics - 1
DYEAR=1900
DGENRE=Country
TTITLE0=01 - Ace Cannon - King Of The Road
TTITLE1=02 - Dave Dudley - Six Days On The Road
TTITLE2=03 - Ferlin Husky - Convoy
TTITLE3=04 - Barbara Fairchild - Teddy Bear Song
TTITLE4=05 - Red Simpson - Roll Truck Roll
TTITLE5=06 - Dennis Olson - Truck Drivin' Outlaw
TTITLE6=07 - Freddy Fender - Wasted Days And Wasted Nights
TTITLE7=08 - Red Steagall - Truck Drivin' Man
TTITLE8=09 - Roy Drusky - Long,Long Texas Road
TTITLE9=10 - Ferlin Husky - Freightliner Fever
TTITLE10=11 - Duane Eddy - Forty Miles Of Bad Road
TTITLE11=12 - Bill Parsons (aka Bobby Bare) - The All American Boy
EXTD=
EXTT0=
EXTT1=
EXTT2=
EXTT3=
EXTT4=
EXTT5=
EXTT6=
EXTT7=
EXTT8=
EXTT9=
EXTT10=
EXTT11=
PLAYORDER=
